<svg width="16" height="16" viewBox="0 0 16 16" fill="none" xmlns="http://www.w3.org/2000/svg">
<path d="M7.99995 0C4.80479 0 2.20535 2.59944 2.20535 5.79456C2.20535 9.75981 7.39095 15.581 7.61173 15.8269C7.8191 16.0579 8.18117 16.0575 8.38817 15.8269C8.60895 15.581 13.7945 9.75981 13.7945 5.79456C13.7945 2.59944 11.1951 0 7.99995 0ZM7.99995 8.70997C6.39238 8.70997 5.08457 7.40213 5.08457 5.79456C5.08457 4.187 6.39242 2.87919 7.99995 2.87919C9.60748 2.87919 10.9153 4.18703 10.9153 5.79459C10.9153 7.40216 9.60748 8.70997 7.99995 8.70997Z" fill="#303030"/>
</svg>
