<svg width="721" height="536" fill="none" xmlns="http://www.w3.org/2000/svg"><path opacity=".8" fill-rule="evenodd" clip-rule="evenodd" d="M65.071 0h-.092l-.086.033L-16.882 31.3l-.078.03-.063.052-94.603 78.569-.374.31.3.383 415.183 529.579v2.298l.894-1.14.007-.009.008.009.893 1.14v-2.298l415.184-529.579.3-.383-.374-.31-94.603-78.569-.064-.053-.077-.029L543.876.033 543.789 0H65.071Zm238.912 1H72.77l231.614 30.21L535.998 1H303.983Zm1.302 179.491V33.041l142.72 77.273-142.72 70.177Zm0 456.714V182.188h218.376L305.285 637.205ZM303.483 33.04l-142.719 77.274 142.719 70.177V33.041Zm0 149.148H85.107l218.376 455.017V182.188ZM-13.997 31.267l79.13-30.255 231.954 30.255H-13.996Zm-.356 1h317.164l-143.158 77.511-174.006-77.511Zm-95.569 77.568h267.245L-16.624 32.35l-93.298 77.485Zm412.274 527.324-412.184-525.754L83.95 182.088l218.402 455.071ZM85.568 181.188h217.067l-142.87-70.251-74.197 70.251Zm-194.045-70.353 192.67 70.278 74.226-70.278h-266.896Zm731.242-79.568L543.637 1.012 311.683 31.267h311.082Zm.356 1H305.957l143.159 77.511 174.005-77.511Zm95.569 77.568H451.446L625.392 32.35l93.298 77.485ZM306.416 637.159l412.185-525.754-193.782 70.683-218.403 455.071Zm216.785-455.971H306.134l142.869-70.251 74.198 70.251Zm194.044-70.353-192.67 70.278-74.225-70.278h266.895Z" fill="#EEE"/></svg>