<svg width="183" height="54" fill="none" xmlns="http://www.w3.org/2000/svg"><path d="M7.184 46.953v.718H4.196v-.718h2.988Zm-2.325-3.35V51h-.765v-7.397h.765Zm1.703 3.801v-.219c0-.533.066-1.025.198-1.476.132-.456.321-.85.567-1.183.246-.337.538-.597.875-.779a2.34 2.34 0 0 1 1.142-.28c.419 0 .802.093 1.148.28.346.182.64.442.882.78.246.332.433.726.56 1.182a5.2 5.2 0 0 1 .199 1.476v.22a5.36 5.36 0 0 1-.198 1.496 3.69 3.69 0 0 1-.561 1.183 2.639 2.639 0 0 1-.875.78 2.401 2.401 0 0 1-1.148.273c-.42 0-.803-.091-1.149-.274a2.706 2.706 0 0 1-.882-.779 3.892 3.892 0 0 1-.56-1.183 5.36 5.36 0 0 1-.198-1.497Zm.765-.212v.226c0 .401.043.784.13 1.148.087.36.214.68.383.957.173.278.385.497.636.657.255.16.546.239.875.239.323 0 .61-.077.86-.232.256-.16.468-.381.637-.664a3.32 3.32 0 0 0 .39-.963c.09-.36.136-.743.136-1.149v-.219a4.61 4.61 0 0 0-.137-1.134 3.214 3.214 0 0 0-.39-.964 1.997 1.997 0 0 0-.635-.67 1.55 1.55 0 0 0-.868-.246 1.55 1.55 0 0 0-.868.246 2.078 2.078 0 0 0-.636.67 3.327 3.327 0 0 0-.383.964c-.087.36-.13.738-.13 1.134Zm13.097.404h-2.153l-.007-.704h1.819c.364 0 .667-.048.909-.144.246-.096.43-.24.554-.43.127-.197.191-.436.191-.718a1.36 1.36 0 0 0-.11-.575.977.977 0 0 0-.328-.403 1.434 1.434 0 0 0-.533-.232 3.002 3.002 0 0 0-.738-.082h-1.545V51h-.765v-7.397h2.31a3.9 3.9 0 0 1 1.025.124c.306.077.566.198.78.362.214.16.378.362.492.608.114.246.17.54.17.882 0 .223-.036.435-.109.636a1.622 1.622 0 0 1-.328.533 1.71 1.71 0 0 1-.52.383 2.09 2.09 0 0 1-.71.178l-.404.287ZM20.418 51h-2.393l.315-.71h2.084c.333 0 .616-.053.848-.158.233-.105.408-.258.527-.458.123-.205.184-.456.184-.752 0-.269-.061-.501-.184-.697a1.17 1.17 0 0 0-.527-.465c-.232-.11-.515-.164-.848-.164h-1.592l.013-.704h2.038l.307.266c.32.027.593.128.82.301.233.169.413.383.54.643.128.26.192.54.192.84 0 .342-.055.643-.164.903-.11.255-.267.467-.472.636-.2.168-.444.298-.731.39a3.327 3.327 0 0 1-.957.129Zm10.322.144a3.14 3.14 0 0 1-1.135-.199 2.402 2.402 0 0 1-.889-.615 2.922 2.922 0 0 1-.574-1.046c-.137-.424-.205-.923-.205-1.497v-.854c0-.611.073-1.135.219-1.573.146-.442.341-.802.588-1.08a2.26 2.26 0 0 1 .854-.615 2.618 2.618 0 0 1 1.012-.198c.405 0 .76.066 1.066.198.31.132.57.333.78.602.21.268.366.608.471 1.018.105.406.157.887.157 1.443v.635h-4.689v-.71h3.93v-.192c-.009-.483-.077-.893-.205-1.23-.122-.342-.31-.602-.56-.78-.246-.182-.56-.273-.943-.273-.283 0-.543.052-.78.157-.237.1-.442.26-.615.478-.169.22-.298.504-.39.855-.086.35-.13.772-.13 1.265v.854c0 .451.048.843.144 1.176.1.328.242.602.424.82.182.214.401.376.656.486.255.104.538.157.848.157.383 0 .718-.064 1.005-.192.287-.132.542-.33.765-.594l.404.505a2.763 2.763 0 0 1-.506.5c-.2.15-.44.27-.718.362a3.168 3.168 0 0 1-.984.137Zm11.956-7.54v.717h-3.118v-.718h3.117Zm.635 0V51h-.765v-7.397h.765Zm-3.951 0h.766l-.144 3.472a22.23 22.23 0 0 1-.116 1.49c-.05.429-.123.798-.219 1.108a2.48 2.48 0 0 1-.349.759c-.14.191-.31.335-.505.43a1.543 1.543 0 0 1-.67.137h-.274v-.752l.212-.007c.164-.014.305-.054.424-.123a.877.877 0 0 0 .314-.349c.092-.163.167-.373.226-.628.06-.26.105-.577.137-.95.032-.374.059-.819.082-1.334l.116-3.254Zm10.636 6.05 3.254-6.05h.766V51h-.766v-6.05L50.016 51h-.758v-7.397h.758v6.05Zm10.637-4.629v8.819h-.759v-10.24h.704l.055 1.421Zm4.293 1.935v.69c0 .597-.052 1.115-.157 1.552-.105.438-.26.8-.465 1.087a1.947 1.947 0 0 1-.752.643 2.261 2.261 0 0 1-.998.212c-.37 0-.695-.064-.978-.192a2.07 2.07 0 0 1-.724-.54 2.878 2.878 0 0 1-.472-.827c-.118-.319-.2-.67-.246-1.053v-2.276c.05-.42.137-.8.26-1.142.123-.341.282-.636.478-.882s.43-.435.704-.567c.278-.132.597-.198.957-.198.383 0 .723.066 1.019.198.296.128.547.333.752.615.205.278.36.64.465 1.087.105.442.157.973.157 1.593Zm-.759.69v-.69a5.89 5.89 0 0 0-.11-1.23 2.482 2.482 0 0 0-.334-.862 1.346 1.346 0 0 0-.568-.506 1.784 1.784 0 0 0-.806-.17 1.75 1.75 0 0 0-.814.177c-.223.114-.41.267-.56.458a2.667 2.667 0 0 0-.356.63c-.086.222-.15.443-.191.662v2.591c.077.3.194.583.349.848.154.264.362.476.622.635.26.155.58.233.963.233.31 0 .577-.055.8-.164.228-.114.415-.285.56-.513.151-.232.263-.522.336-.868a6.04 6.04 0 0 0 .11-1.23Zm10.534-.752v.718h-3.603v-.718h3.603Zm-3.411-3.295V51h-.766v-7.397h.766Zm4.006 0V51h-.759v-7.397h.759Zm6.46 2.673h1.989c.492 0 .907.103 1.244.308.342.205.6.485.772.84.178.352.267.753.267 1.204 0 .333-.05.645-.15.937-.1.287-.247.537-.438.751-.191.215-.43.383-.718.506a2.53 2.53 0 0 1-.984.178h-2.495v-7.397h.765v6.68h1.743c.365 0 .657-.078.876-.233.223-.155.385-.358.485-.609.1-.25.15-.515.15-.793 0-.273-.05-.535-.15-.786a1.36 1.36 0 0 0-.486-.622c-.218-.164-.512-.246-.881-.246h-1.99v-.718Zm6.398-2.673V51h-.766v-7.397h.766Zm6.767 6.05 3.254-6.05h.766V51h-.766v-6.05L94.941 51h-.759v-7.397h.76v6.05Zm2.885-8.715h.704c0 .346-.08.654-.24.922a1.637 1.637 0 0 1-.683.622c-.291.15-.642.226-1.052.226-.616 0-1.101-.164-1.457-.492-.35-.333-.526-.759-.526-1.279h.704c0 .315.096.588.287.82.192.229.52.343.985.343.46 0 .788-.114.984-.342.196-.233.294-.506.294-.82Zm17.404 8.927 2.399-6.262h.752L115.496 51h-.54l-2.871-7.397h.745l2.4 6.262Zm-2.625-6.262V51h-.766v-7.397h.766ZM117.807 51v-7.397h.765V51h-.765Zm10.397-1.326v-4.026c0-.347-.059-.627-.178-.841a1.058 1.058 0 0 0-.519-.479c-.228-.1-.508-.15-.841-.15-.315 0-.595.064-.841.191a1.389 1.389 0 0 0-.567.52 1.44 1.44 0 0 0-.199.758l-.758-.006a2.108 2.108 0 0 1 .656-1.51 2.3 2.3 0 0 1 .752-.486c.296-.119.624-.178.984-.178.442 0 .834.07 1.176.212.342.141.608.373.8.697.196.324.294.752.294 1.285v3.78c0 .26.016.527.048.8.036.274.084.497.143.67V51h-.806a2.946 2.946 0 0 1-.11-.608 7.86 7.86 0 0 1-.034-.718Zm.157-2.994.021.65h-1.313c-.355 0-.667.038-.936.115-.269.078-.495.19-.677.335a1.428 1.428 0 0 0-.403.52c-.091.2-.137.428-.137.683 0 .329.052.597.157.807.105.205.258.358.458.458.205.096.449.144.732.144.373 0 .701-.073.984-.22a2.004 2.004 0 0 0 1.06-1.388l.205.466c-.046.21-.13.424-.253.643a2.737 2.737 0 0 1-.479.615 2.39 2.39 0 0 1-.697.458 2.232 2.232 0 0 1-.909.178 2.33 2.33 0 0 1-1.067-.233 1.65 1.65 0 0 1-.704-.704c-.164-.314-.246-.702-.246-1.162 0-.342.057-.656.171-.943a2.05 2.05 0 0 1 .526-.746 2.43 2.43 0 0 1 .875-.499 3.828 3.828 0 0 1 1.224-.177h1.408Zm10.363-3.077v.718h-3.083V51h-.765v-7.397h3.848Zm8.88 6.07v-4.026c0-.346-.059-.626-.178-.84a1.062 1.062 0 0 0-.519-.479c-.228-.1-.509-.15-.841-.15-.315 0-.595.064-.841.191a1.382 1.382 0 0 0-.567.52 1.431 1.431 0 0 0-.199.758l-.758-.006a2.11 2.11 0 0 1 .656-1.51c.209-.206.46-.368.752-.486.296-.119.624-.178.984-.178.442 0 .834.07 1.176.212.342.141.608.373.8.697.196.324.294.752.294 1.285v3.78c0 .26.016.527.048.8.036.274.084.497.143.67V51h-.807a3.022 3.022 0 0 1-.109-.608 7.86 7.86 0 0 1-.034-.718Zm.157-2.993.021.65h-1.313a3.41 3.41 0 0 0-.936.115c-.269.078-.495.19-.677.335a1.442 1.442 0 0 0-.404.52c-.091.2-.136.428-.136.683 0 .329.052.597.157.807.105.205.257.358.458.458.205.096.449.144.731.144.374 0 .702-.073.985-.22a2.03 2.03 0 0 0 .704-.594c.182-.25.301-.515.355-.793l.205.465c-.045.21-.129.424-.252.643a2.737 2.737 0 0 1-.479.615 2.39 2.39 0 0 1-.697.458 2.232 2.232 0 0 1-.909.178 2.33 2.33 0 0 1-1.067-.233 1.641 1.641 0 0 1-.704-.704c-.164-.314-.246-.702-.246-1.162 0-.342.057-.656.171-.943.118-.287.294-.536.526-.746.233-.214.524-.38.875-.499a3.828 3.828 0 0 1 1.224-.177h1.408Zm8.647.738h-1.025v-.567h.964c.364 0 .654-.053.868-.158a.976.976 0 0 0 .465-.45 1.55 1.55 0 0 0 .143-.684c0-.251-.052-.481-.157-.69-.1-.21-.26-.38-.478-.507-.219-.127-.511-.191-.875-.191-.283 0-.54.061-.773.184a1.56 1.56 0 0 0-.567.506c-.142.215-.212.46-.212.739h-.759c0-.438.107-.816.321-1.135.215-.32.497-.565.848-.738.351-.174.731-.26 1.142-.26.355 0 .672.045.95.136.282.092.522.228.718.41.196.178.346.397.451.657.105.26.157.56.157.902a1.739 1.739 0 0 1-.567 1.306 2 2 0 0 1-.691.396 2.743 2.743 0 0 1-.923.144Zm-1.025-.39h1.025c.383 0 .716.044.998.13.287.082.527.205.718.37.192.163.335.366.431.608.095.241.143.517.143.827 0 .342-.057.647-.171.916a1.795 1.795 0 0 1-.492.677 2.25 2.25 0 0 1-.752.424c-.291.1-.613.15-.964.15-.387 0-.767-.08-1.141-.24a2.184 2.184 0 0 1-.916-.738c-.242-.337-.363-.765-.363-1.285h.759c0 .287.071.55.212.786.146.237.342.426.588.568.251.141.536.212.855.212.36 0 .658-.062.895-.185.242-.128.422-.3.54-.52.123-.218.185-.469.185-.751 0-.329-.06-.593-.178-.793a1.011 1.011 0 0 0-.526-.452c-.233-.095-.527-.143-.882-.143h-.964v-.56Zm9.672 2.625 3.254-6.05h.766V51h-.766v-6.05L165.055 51h-.758v-7.397h.758v6.05Zm14.116-2.755v.718h-3.602v-.718h3.602Zm-3.411-3.295V51h-.765v-7.397h.765Zm4.006 0V51h-.759v-7.397h.759Z" fill="#919191"/><path d="M13.312 27.64c-2.325 0-4.363-.565-6.112-1.696-1.75-1.13-3.104-2.71-4.064-4.736-.939-2.027-1.408-4.363-1.408-7.008 0-2.645.501-4.981 1.504-7.008 1.003-2.027 2.4-3.605 4.192-4.736C9.237 1.326 11.307.76 13.632.76c2.197 0 4.053.555 5.568 1.664L21.152.76h.672v7.936h-.672l-2.112-5.28c-1.536-1.28-3.339-1.92-5.408-1.92-1.493 0-2.837.384-4.032 1.152-1.173.768-2.101 1.888-2.784 3.36-.661 1.472-.992 3.221-.992 5.248v5.856c0 2.027.31 3.776.928 5.248.64 1.472 1.515 2.603 2.624 3.392 1.13.768 2.443 1.152 3.936 1.152 1.835 0 3.253-.565 4.256-1.696 1.024-1.13 1.536-2.645 1.536-4.544v-2.976l-2.976-.448v-.704h9.568v.704l-2.976.448v2.976c0 1.216-.33 2.357-.992 3.424-.661 1.045-1.696 1.899-3.104 2.56-1.408.661-3.179.992-5.312.992Zm22.07-.32c-1.535 0-2.933-.352-4.191-1.056-1.259-.725-2.262-1.739-3.008-3.04-.726-1.323-1.088-2.827-1.088-4.512 0-1.685.362-3.179 1.088-4.48.746-1.301 1.75-2.304 3.008-3.008 1.258-.725 2.656-1.088 4.192-1.088s2.933.363 4.192 1.088c1.258.704 2.25 1.707 2.976 3.008.746 1.301 1.12 2.795 1.12 4.48 0 1.685-.374 3.19-1.12 4.512-.726 1.301-1.718 2.315-2.976 3.04-1.259.704-2.656 1.056-4.192 1.056Zm0-.704c1.58 0 2.763-.576 3.553-1.728.81-1.152 1.216-2.677 1.216-4.576v-3.2c0-1.899-.406-3.413-1.216-4.544-.79-1.152-1.974-1.728-3.552-1.728-1.579 0-2.774.576-3.584 1.728-.79 1.13-1.184 2.645-1.184 4.544v3.2c0 1.899.394 3.424 1.184 4.576.81 1.152 2.005 1.728 3.584 1.728Zm10.29.384v-.64l2.4-.32V2.36l-2.4-.32V1.4h5.6v24.64l2.24.32V27h-7.84Zm17.54.32c-1.515 0-2.849-.352-4-1.056-1.153-.725-2.049-1.728-2.689-3.008-.64-1.301-.96-2.816-.96-4.544 0-1.728.32-3.232.96-4.512.64-1.301 1.536-2.304 2.688-3.008 1.153-.704 2.486-1.056 4-1.056 1.238 0 2.315.33 3.233.992.917.64 1.642 1.525 2.175 2.656V2.36l-2.24-.32V1.4h5.44v24.64l2.24.32V27h-5.44v-3.328c-.533 1.13-1.258 2.027-2.175 2.688-.918.64-1.995.96-3.233.96Zm.32-.8a4.25 4.25 0 0 0 2.528-.8 5.871 5.871 0 0 0 1.823-2.176c.47-.917.715-1.91.737-2.976v-3.68a6.536 6.536 0 0 0-.737-2.944c-.447-.917-1.055-1.643-1.823-2.176a4.133 4.133 0 0 0-2.529-.832c-2.965 0-4.447 2.059-4.447 6.176v3.2c0 4.139 1.482 6.208 4.447 6.208Zm14.963 9.824c-1.11 0-2.006-.277-2.688-.832-.683-.555-1.024-1.301-1.024-2.24 0-.64.181-1.163.544-1.568a1.915 1.915 0 0 1 1.408-.576c.405 0 .768.085 1.088.256.32.17.576.427.768.768-.32.448-.48.917-.48 1.408 0 .427.138.779.416 1.056.277.277.63.416 1.056.416.512 0 .95-.17 1.312-.512.384-.341.725-.939 1.024-1.792l1.92-5.504-7.424-15.808-2.144-.32v-.64h7.968v.64l-2.24.384 5.344 11.424 3.808-11.008-2.752-.8v-.64h5.76v.64l-2.176.8-7.168 20.832c-.448 1.259-.992 2.176-1.632 2.752-.619.576-1.515.864-2.688.864Z" fill="#E1A661"/><path d="M110.924 27.64c-1.984 0-3.936-.565-5.856-1.696l-2.72 1.376h-.704v-8.224h.704l2.752 5.952c1.771 1.259 3.797 1.888 6.08 1.888 1.877 0 3.424-.49 4.64-1.472 1.237-1.003 1.856-2.4 1.856-4.192 0-1.301-.395-2.325-1.184-3.072-.789-.768-2.069-1.376-3.84-1.824L107.34 15c-1.856-.49-3.253-1.323-4.192-2.496-.939-1.195-1.408-2.603-1.408-4.224 0-1.472.288-2.773.864-3.904a6.225 6.225 0 0 1 2.592-2.656c1.131-.64 2.475-.96 4.032-.96 1.941 0 3.68.33 5.216.992L116.78.76h.704v6.528h-.704l-2.304-4.672c-1.6-.768-3.339-1.152-5.216-1.152-1.856 0-3.317.48-4.384 1.44-1.067.939-1.6 2.187-1.6 3.744 0 1.152.373 2.059 1.12 2.72.768.661 1.888 1.184 3.36 1.568l5.728 1.504c1.856.47 3.232 1.28 4.128 2.432.917 1.13 1.376 2.859 1.376 5.184 0 2.368-.736 4.224-2.208 5.568-1.451 1.344-3.403 2.016-5.856 2.016Zm17.377-.32c-1.408 0-2.539-.352-3.392-1.056-.832-.704-1.248-1.824-1.248-3.36v-11.52l-2.272-.32v-.64h2.272V7.768l3.2-.8v3.456h4.16v.64l-4.16.32V22.84c0 2.261.81 3.392 2.432 3.392.341 0 .661-.053.96-.16.32-.107.565-.213.736-.32.192-.107.309-.181.352-.224l.416.512c-.96.853-2.112 1.28-3.456 1.28Zm12.301 0c-1.536 0-2.934-.352-4.192-1.056-1.259-.725-2.262-1.739-3.008-3.04-.726-1.323-1.088-2.827-1.088-4.512 0-1.685.362-3.179 1.088-4.48.746-1.301 1.749-2.304 3.008-3.008 1.258-.725 2.656-1.088 4.192-1.088s2.933.363 4.192 1.088c1.258.704 2.25 1.707 2.976 3.008.746 1.301 1.12 2.795 1.12 4.48 0 1.685-.374 3.19-1.12 4.512-.726 1.301-1.718 2.315-2.976 3.04-1.259.704-2.656 1.056-4.192 1.056Zm0-.704c1.578 0 2.762-.576 3.552-1.728.81-1.152 1.216-2.677 1.216-4.576v-3.2c0-1.899-.406-3.413-1.216-4.544-.79-1.152-1.974-1.728-3.552-1.728-1.579 0-2.774.576-3.584 1.728-.79 1.13-1.184 2.645-1.184 4.544v3.2c0 1.899.394 3.424 1.184 4.576.81 1.152 2.005 1.728 3.584 1.728Zm10.512-.256 2.24-.32V11.384l-2.24-.32v-.64h5.44v2.464c1.344-1.835 2.859-2.752 4.544-2.752.811 0 1.525.213 2.144.64.619.405.928.992.928 1.76 0 .555-.181 1.024-.544 1.408-.363.363-.843.544-1.44.544a2.032 2.032 0 0 1-1.664-.8c.235-.299.352-.619.352-.96 0-.363-.128-.65-.384-.864-.235-.235-.555-.352-.96-.352-.448 0-.907.213-1.376.64-.469.405-1.003 1.045-1.6 1.92V26.04l2.56.32V27h-8v-.64Zm22.804.96c-1.579 0-3.008-.352-4.288-1.056a7.997 7.997 0 0 1-3.04-3.04c-.747-1.301-1.12-2.805-1.12-4.512 0-1.707.362-3.2 1.088-4.48.746-1.301 1.738-2.304 2.976-3.008 1.258-.725 2.656-1.088 4.192-1.088 1.344 0 2.549.299 3.616.896a6.39 6.39 0 0 1 2.496 2.496c.597 1.045.906 2.25.928 3.616H168.99v3.168c0 1.877.416 3.403 1.248 4.576.853 1.152 2.08 1.728 3.68 1.728 1.472 0 2.773-.416 3.904-1.248 1.13-.832 1.824-1.91 2.08-3.232h.736c-.299 1.579-1.056 2.837-2.272 3.776-1.216.939-2.699 1.408-4.448 1.408Zm3.328-10.976c0-1.856-.288-3.232-.864-4.128-.576-.917-1.472-1.376-2.688-1.376-1.43 0-2.539.501-3.328 1.504-.79 1.003-1.238 2.336-1.344 4h8.224Z" fill="#303030"/></svg>